<mxfile host="app.diagrams.net" modified="2022-05-10T20:00:29.129Z" agent="5.0 (Windows NT 10.0; Win64; x64) AppleWebKit/537.36 (KHTML, like Gecko) Chrome/101.0.4951.54 Safari/537.36" etag="T4iF-4I-fS_c8rwFSYdP" version="18.0.0" type="github">
  <diagram id="kZA55Ri5l6qM_A8G7Y4E" name="Page-1">
    <mxGraphModel dx="1550" dy="779" grid="1" gridSize="10" guides="1" tooltips="1" connect="1" arrows="1" fold="1" page="1" pageScale="1" pageWidth="827" pageHeight="1169" math="0" shadow="0">
      <root>
        <mxCell id="0" />
        <mxCell id="1" parent="0" />
        <mxCell id="lDiaifbI5lFIjhtOzj-N-2" value="Assembly A" style="rounded=1;whiteSpace=wrap;html=1;fontSize=18;verticalAlign=top;fillColor=none;" parent="1" vertex="1">
          <mxGeometry x="50" y="165" width="570" height="385" as="geometry" />
        </mxCell>
        <mxCell id="lDiaifbI5lFIjhtOzj-N-3" value="" style="ellipse;whiteSpace=wrap;html=1;aspect=fixed;verticalAlign=middle;fillColor=#dae8fc;strokeColor=#6c8ebf;spacing=1;strokeWidth=0;shadow=1;" parent="1" vertex="1">
          <mxGeometry x="414" y="200" width="13.5" height="13.5" as="geometry" />
        </mxCell>
        <mxCell id="lDiaifbI5lFIjhtOzj-N-4" value="" style="ellipse;whiteSpace=wrap;html=1;aspect=fixed;verticalAlign=middle;fillColor=#ffe6cc;strokeColor=#d79b00;spacing=1;strokeWidth=0;shadow=1;" parent="1" vertex="1">
          <mxGeometry x="446.5" y="172" width="14.5" height="14.5" as="geometry" />
        </mxCell>
        <mxCell id="lDiaifbI5lFIjhtOzj-N-5" value="" style="ellipse;whiteSpace=wrap;html=1;aspect=fixed;verticalAlign=middle;fillColor=#ffe6cc;strokeColor=#d79b00;spacing=1;strokeWidth=0;shadow=1;" parent="1" vertex="1">
          <mxGeometry x="560" y="170" width="10" height="10" as="geometry" />
        </mxCell>
        <mxCell id="lDiaifbI5lFIjhtOzj-N-6" value="" style="ellipse;whiteSpace=wrap;html=1;aspect=fixed;verticalAlign=middle;fillColor=#f5f5f5;strokeColor=#666666;fontColor=#333333;spacing=1;strokeWidth=0;shadow=1;" parent="1" vertex="1">
          <mxGeometry x="590" y="206.5" width="10" height="10" as="geometry" />
        </mxCell>
        <mxCell id="lDiaifbI5lFIjhtOzj-N-7" value="" style="ellipse;whiteSpace=wrap;html=1;aspect=fixed;verticalAlign=middle;fillColor=#d5e8d4;strokeColor=#82b366;spacing=1;strokeWidth=0;shadow=1;" parent="1" vertex="1">
          <mxGeometry x="546.5" y="213" width="13.5" height="13.5" as="geometry" />
        </mxCell>
        <mxCell id="lDiaifbI5lFIjhtOzj-N-8" value="" style="ellipse;whiteSpace=wrap;html=1;aspect=fixed;verticalAlign=middle;fillColor=#f5f5f5;strokeColor=#666666;fontColor=#333333;spacing=1;strokeWidth=0;shadow=1;" parent="1" vertex="1">
          <mxGeometry x="493.5" y="207" width="13.5" height="13.5" as="geometry" />
        </mxCell>
        <mxCell id="lDiaifbI5lFIjhtOzj-N-9" value="" style="ellipse;whiteSpace=wrap;html=1;aspect=fixed;verticalAlign=middle;fillColor=#dae8fc;strokeColor=#6c8ebf;spacing=1;strokeWidth=0;shadow=1;" parent="1" vertex="1">
          <mxGeometry x="493.5" y="180" width="13.5" height="13.5" as="geometry" />
        </mxCell>
        <mxCell id="lDiaifbI5lFIjhtOzj-N-10" value="" style="ellipse;whiteSpace=wrap;html=1;aspect=fixed;verticalAlign=middle;fillColor=#f8cecc;strokeColor=#b85450;spacing=1;strokeWidth=0;shadow=1;" parent="1" vertex="1">
          <mxGeometry x="461" y="199.5" width="13.5" height="13.5" as="geometry" />
        </mxCell>
        <mxCell id="lDiaifbI5lFIjhtOzj-N-11" value="" style="ellipse;whiteSpace=wrap;html=1;aspect=fixed;verticalAlign=middle;fillColor=#e1d5e7;strokeColor=#9673a6;spacing=1;strokeWidth=0;shadow=1;" parent="1" vertex="1">
          <mxGeometry x="537" y="186.5" width="13.5" height="13.5" as="geometry" />
        </mxCell>
        <mxCell id="lDiaifbI5lFIjhtOzj-N-12" value="" style="endArrow=none;html=1;exitX=1;exitY=0.5;exitDx=0;exitDy=0;entryX=0;entryY=0.5;entryDx=0;entryDy=0;spacing=1;strokeWidth=0;shadow=1;" parent="1" source="lDiaifbI5lFIjhtOzj-N-4" target="lDiaifbI5lFIjhtOzj-N-9" edge="1">
          <mxGeometry width="50" height="50" relative="1" as="geometry">
            <mxPoint x="433" y="223.5" as="sourcePoint" />
            <mxPoint x="483" y="173.5" as="targetPoint" />
          </mxGeometry>
        </mxCell>
        <mxCell id="lDiaifbI5lFIjhtOzj-N-13" value="" style="endArrow=none;html=1;exitX=1;exitY=0.5;exitDx=0;exitDy=0;entryX=0;entryY=1;entryDx=0;entryDy=0;spacing=1;strokeWidth=0;shadow=1;" parent="1" source="lDiaifbI5lFIjhtOzj-N-3" target="lDiaifbI5lFIjhtOzj-N-10" edge="1">
          <mxGeometry width="50" height="50" relative="1" as="geometry">
            <mxPoint x="290" y="234" as="sourcePoint" />
            <mxPoint x="450" y="200" as="targetPoint" />
          </mxGeometry>
        </mxCell>
        <mxCell id="lDiaifbI5lFIjhtOzj-N-14" value="" style="endArrow=none;html=1;exitX=1;exitY=0;exitDx=0;exitDy=0;entryX=0;entryY=1;entryDx=0;entryDy=0;spacing=1;strokeWidth=0;shadow=1;" parent="1" source="lDiaifbI5lFIjhtOzj-N-3" target="lDiaifbI5lFIjhtOzj-N-4" edge="1">
          <mxGeometry width="50" height="50" relative="1" as="geometry">
            <mxPoint x="433" y="223.5" as="sourcePoint" />
            <mxPoint x="483" y="173.5" as="targetPoint" />
          </mxGeometry>
        </mxCell>
        <mxCell id="lDiaifbI5lFIjhtOzj-N-15" value="" style="endArrow=none;html=1;exitX=1;exitY=1;exitDx=0;exitDy=0;entryX=0;entryY=0;entryDx=0;entryDy=0;spacing=1;strokeWidth=0;shadow=1;" parent="1" source="lDiaifbI5lFIjhtOzj-N-4" target="lDiaifbI5lFIjhtOzj-N-10" edge="1">
          <mxGeometry width="50" height="50" relative="1" as="geometry">
            <mxPoint x="433" y="223.5" as="sourcePoint" />
            <mxPoint x="483" y="173.5" as="targetPoint" />
          </mxGeometry>
        </mxCell>
        <mxCell id="lDiaifbI5lFIjhtOzj-N-16" value="" style="endArrow=none;html=1;entryX=0.5;entryY=1;entryDx=0;entryDy=0;exitX=1;exitY=0.5;exitDx=0;exitDy=0;spacing=1;strokeWidth=0;shadow=1;" parent="1" source="lDiaifbI5lFIjhtOzj-N-10" target="lDiaifbI5lFIjhtOzj-N-9" edge="1">
          <mxGeometry width="50" height="50" relative="1" as="geometry">
            <mxPoint x="420" y="220" as="sourcePoint" />
            <mxPoint x="423" y="203.5" as="targetPoint" />
          </mxGeometry>
        </mxCell>
        <mxCell id="lDiaifbI5lFIjhtOzj-N-17" value="" style="endArrow=none;html=1;exitX=0.5;exitY=1;exitDx=0;exitDy=0;entryX=0.5;entryY=0;entryDx=0;entryDy=0;spacing=1;strokeWidth=0;shadow=1;" parent="1" source="lDiaifbI5lFIjhtOzj-N-9" target="lDiaifbI5lFIjhtOzj-N-8" edge="1">
          <mxGeometry width="50" height="50" relative="1" as="geometry">
            <mxPoint x="433" y="223.5" as="sourcePoint" />
            <mxPoint x="483" y="173.5" as="targetPoint" />
          </mxGeometry>
        </mxCell>
        <mxCell id="lDiaifbI5lFIjhtOzj-N-18" value="" style="endArrow=none;html=1;exitX=1;exitY=0.5;exitDx=0;exitDy=0;entryX=0;entryY=0.5;entryDx=0;entryDy=0;spacing=1;strokeWidth=0;shadow=1;" parent="1" source="lDiaifbI5lFIjhtOzj-N-10" target="lDiaifbI5lFIjhtOzj-N-8" edge="1">
          <mxGeometry width="50" height="50" relative="1" as="geometry">
            <mxPoint x="433" y="223.5" as="sourcePoint" />
            <mxPoint x="483" y="173.5" as="targetPoint" />
          </mxGeometry>
        </mxCell>
        <mxCell id="lDiaifbI5lFIjhtOzj-N-19" value="" style="endArrow=none;html=1;exitX=1;exitY=0.5;exitDx=0;exitDy=0;entryX=0;entryY=0.5;entryDx=0;entryDy=0;spacing=1;strokeWidth=0;shadow=1;" parent="1" source="lDiaifbI5lFIjhtOzj-N-9" target="lDiaifbI5lFIjhtOzj-N-11" edge="1">
          <mxGeometry width="50" height="50" relative="1" as="geometry">
            <mxPoint x="433" y="223.5" as="sourcePoint" />
            <mxPoint x="483" y="173.5" as="targetPoint" />
          </mxGeometry>
        </mxCell>
        <mxCell id="lDiaifbI5lFIjhtOzj-N-20" value="" style="endArrow=none;html=1;exitX=1;exitY=0;exitDx=0;exitDy=0;entryX=0.5;entryY=1;entryDx=0;entryDy=0;spacing=1;strokeWidth=0;shadow=1;" parent="1" source="lDiaifbI5lFIjhtOzj-N-8" target="lDiaifbI5lFIjhtOzj-N-11" edge="1">
          <mxGeometry width="50" height="50" relative="1" as="geometry">
            <mxPoint x="433" y="223.5" as="sourcePoint" />
            <mxPoint x="483" y="173.5" as="targetPoint" />
          </mxGeometry>
        </mxCell>
        <mxCell id="lDiaifbI5lFIjhtOzj-N-21" value="" style="endArrow=none;html=1;entryX=0;entryY=0.5;entryDx=0;entryDy=0;exitX=0.5;exitY=1;exitDx=0;exitDy=0;spacing=1;strokeWidth=0;shadow=1;" parent="1" source="lDiaifbI5lFIjhtOzj-N-11" target="lDiaifbI5lFIjhtOzj-N-6" edge="1">
          <mxGeometry width="50" height="50" relative="1" as="geometry">
            <mxPoint x="433" y="223.5" as="sourcePoint" />
            <mxPoint x="483" y="173.5" as="targetPoint" />
          </mxGeometry>
        </mxCell>
        <mxCell id="lDiaifbI5lFIjhtOzj-N-22" value="" style="endArrow=none;html=1;entryX=0;entryY=0.5;entryDx=0;entryDy=0;exitX=1;exitY=0.5;exitDx=0;exitDy=0;spacing=1;strokeWidth=0;shadow=1;" parent="1" source="lDiaifbI5lFIjhtOzj-N-8" target="lDiaifbI5lFIjhtOzj-N-7" edge="1">
          <mxGeometry width="50" height="50" relative="1" as="geometry">
            <mxPoint x="433" y="223.5" as="sourcePoint" />
            <mxPoint x="483" y="173.5" as="targetPoint" />
          </mxGeometry>
        </mxCell>
        <mxCell id="lDiaifbI5lFIjhtOzj-N-23" value="" style="endArrow=none;html=1;entryX=0.5;entryY=1;entryDx=0;entryDy=0;exitX=1;exitY=0.5;exitDx=0;exitDy=0;spacing=1;strokeWidth=0;shadow=1;" parent="1" source="lDiaifbI5lFIjhtOzj-N-7" target="lDiaifbI5lFIjhtOzj-N-6" edge="1">
          <mxGeometry width="50" height="50" relative="1" as="geometry">
            <mxPoint x="433" y="223.5" as="sourcePoint" />
            <mxPoint x="483" y="173.5" as="targetPoint" />
          </mxGeometry>
        </mxCell>
        <mxCell id="lDiaifbI5lFIjhtOzj-N-24" value="" style="endArrow=none;html=1;exitX=0.5;exitY=0;exitDx=0;exitDy=0;entryX=0.5;entryY=1;entryDx=0;entryDy=0;spacing=1;strokeWidth=0;shadow=1;" parent="1" source="lDiaifbI5lFIjhtOzj-N-7" target="lDiaifbI5lFIjhtOzj-N-11" edge="1">
          <mxGeometry width="50" height="50" relative="1" as="geometry">
            <mxPoint x="433" y="223.5" as="sourcePoint" />
            <mxPoint x="503" y="193.5" as="targetPoint" />
          </mxGeometry>
        </mxCell>
        <mxCell id="lDiaifbI5lFIjhtOzj-N-25" value="" style="endArrow=none;html=1;entryX=0.5;entryY=1;entryDx=0;entryDy=0;exitX=1;exitY=0.5;exitDx=0;exitDy=0;spacing=1;strokeWidth=0;shadow=1;" parent="1" source="lDiaifbI5lFIjhtOzj-N-11" target="lDiaifbI5lFIjhtOzj-N-5" edge="1">
          <mxGeometry width="50" height="50" relative="1" as="geometry">
            <mxPoint x="433" y="223.5" as="sourcePoint" />
            <mxPoint x="483" y="173.5" as="targetPoint" />
          </mxGeometry>
        </mxCell>
        <mxCell id="lDiaifbI5lFIjhtOzj-N-33" value="" style="rounded=1;whiteSpace=wrap;html=1;shadow=0;fontSize=18;strokeWidth=1;verticalAlign=top;fillColor=none;" parent="1" vertex="1">
          <mxGeometry x="50" y="240" width="570" height="320" as="geometry" />
        </mxCell>
        <mxCell id="lDiaifbI5lFIjhtOzj-N-34" value="&lt;font style=&quot;font-size: 16px&quot;&gt;CAD Information&lt;/font&gt;" style="rounded=1;whiteSpace=wrap;html=1;shadow=0;fontSize=18;strokeWidth=1;verticalAlign=top;fillColor=none;" parent="1" vertex="1">
          <mxGeometry x="80" y="250" width="290" height="200" as="geometry" />
        </mxCell>
        <mxCell id="lDiaifbI5lFIjhtOzj-N-35" value="&lt;font&gt;&lt;span style=&quot;font-size: 14px&quot;&gt;&amp;nbsp; &amp;nbsp; &amp;nbsp; Cluster 2&lt;/span&gt;&lt;br&gt;&lt;br&gt;&lt;div style=&quot;text-align: left&quot;&gt;&lt;span style=&quot;font-size: 14px&quot;&gt;annotation 1&lt;/span&gt;&lt;/div&gt;&lt;div style=&quot;text-align: left&quot;&gt;&lt;span style=&quot;font-size: 14px&quot;&gt;&lt;br&gt;&lt;/span&gt;&lt;/div&gt;&lt;div style=&quot;text-align: left&quot;&gt;&lt;span style=&quot;font-size: 14px&quot;&gt;annotation 3&lt;/span&gt;&lt;/div&gt;&lt;/font&gt;" style="shape=card;whiteSpace=wrap;html=1;shadow=0;fontSize=18;strokeWidth=1;verticalAlign=top;dashed=1;fillColor=none;" parent="1" vertex="1">
          <mxGeometry x="230" y="290" width="130" height="138" as="geometry" />
        </mxCell>
        <mxCell id="lDiaifbI5lFIjhtOzj-N-36" value="&lt;span style=&quot;font-size: 14px&quot;&gt;&amp;nbsp; &amp;nbsp; &amp;nbsp; Cluster 1&lt;br&gt;&lt;br&gt;&lt;br&gt;&lt;/span&gt;&lt;div style=&quot;text-align: left&quot;&gt;&lt;span style=&quot;font-size: 14px&quot;&gt;annotation 2&lt;/span&gt;&lt;/div&gt;&lt;div&gt;&lt;span style=&quot;font-size: 14px&quot;&gt;&lt;br&gt;&lt;/span&gt;&lt;/div&gt;" style="shape=card;whiteSpace=wrap;html=1;shadow=0;dashed=1;fontSize=18;strokeWidth=1;verticalAlign=top;fillColor=none;" parent="1" vertex="1">
          <mxGeometry x="90" y="289" width="130" height="140" as="geometry" />
        </mxCell>
        <mxCell id="lDiaifbI5lFIjhtOzj-N-37" value="Metadata" style="rounded=1;whiteSpace=wrap;html=1;shadow=0;fontSize=16;strokeWidth=1;verticalAlign=bottom;fillColor=none;" parent="1" vertex="1">
          <mxGeometry x="90" y="460" width="260" height="70" as="geometry" />
        </mxCell>
        <mxCell id="lDiaifbI5lFIjhtOzj-N-38" value="" style="strokeWidth=1;html=1;shape=mxgraph.flowchart.database;whiteSpace=wrap;shadow=0;fontSize=18;verticalAlign=top;fillColor=none;" parent="1" vertex="1">
          <mxGeometry x="117" y="470" width="40" height="30" as="geometry" />
        </mxCell>
        <mxCell id="lDiaifbI5lFIjhtOzj-N-39" value="" style="strokeWidth=1;html=1;shape=mxgraph.flowchart.database;whiteSpace=wrap;shadow=0;fontSize=18;verticalAlign=top;fillColor=none;" parent="1" vertex="1">
          <mxGeometry x="171" y="470" width="40" height="30" as="geometry" />
        </mxCell>
        <mxCell id="lDiaifbI5lFIjhtOzj-N-40" value="" style="strokeWidth=1;html=1;shape=mxgraph.flowchart.database;whiteSpace=wrap;shadow=0;fontSize=18;verticalAlign=top;fillColor=none;" parent="1" vertex="1">
          <mxGeometry x="227" y="470" width="40" height="30" as="geometry" />
        </mxCell>
        <mxCell id="lDiaifbI5lFIjhtOzj-N-41" value="" style="strokeWidth=1;html=1;shape=mxgraph.flowchart.database;whiteSpace=wrap;shadow=0;fontSize=18;verticalAlign=top;fillColor=none;" parent="1" vertex="1">
          <mxGeometry x="284" y="470" width="40" height="30" as="geometry" />
        </mxCell>
        <mxCell id="lDiaifbI5lFIjhtOzj-N-42" value="&lt;br&gt;Components" style="rounded=1;whiteSpace=wrap;html=1;shadow=0;fontSize=16;strokeWidth=1;verticalAlign=top;fillColor=none;" parent="1" vertex="1">
          <mxGeometry x="417" y="275" width="153" height="235" as="geometry" />
        </mxCell>
        <mxCell id="lDiaifbI5lFIjhtOzj-N-43" value="P1" style="rounded=1;whiteSpace=wrap;html=1;shadow=0;fontSize=13;strokeWidth=1;verticalAlign=middle;fillColor=none;" parent="1" vertex="1">
          <mxGeometry x="468.5" y="348" width="50" height="42" as="geometry" />
        </mxCell>
        <mxCell id="lDiaifbI5lFIjhtOzj-N-44" value="P2" style="rounded=1;whiteSpace=wrap;html=1;shadow=0;fontSize=13;strokeWidth=1;verticalAlign=middle;fillColor=none;" parent="1" vertex="1">
          <mxGeometry x="468.5" y="418" width="50" height="42" as="geometry" />
        </mxCell>
      </root>
    </mxGraphModel>
  </diagram>
</mxfile>
